<svg id="Слой_1" data-name="Слой 1" xmlns="http://www.w3.org/2000/svg" viewBox="0 0 415.94 97.1"><defs><style>.cls-1{fill:#ff0;}.cls-1,.cls-2,.cls-3,.cls-4,.cls-5,.cls-6{stroke:#000;}.cls-1,.cls-2,.cls-3,.cls-4,.cls-5,.cls-6,.cls-7,.cls-8,.cls-9{stroke-miterlimit:10;}.cls-2{fill:#00c;}.cls-10,.cls-3{fill:#fff;}.cls-4,.cls-7{fill:red;}.cls-6,.cls-8{fill:none;}.cls-7,.cls-8,.cls-9{stroke:#fff;}</style></defs><title>Безымянный-1</title><rect class="cls-1" x="349.86" y="44.9" width="28.42" height="10.79"/><polygon class="cls-2" points="32.28 14.98 58.52 14.97 61.12 20.25 61.12 80.81 58.55 85.08 32.72 85.08 49.72 47.91 33.69 17.36 32.28 14.98"/><polygon class="cls-3" points="53.97 14.98 56.42 20.25 35.39 20.25 32.28 14.98 53.97 14.98"/><polygon class="cls-4" points="40.59 85.09 49.52 66.85 61.12 66.85 61.12 80.81 58.55 85.09 40.59 85.09"/><polyline class="cls-5" points="70.08 65.89 66.14 73.69 66.14 29.96 70.08 37.73 76.25 24.16 100.8 24.16 88.68 51.01 104.35 85.09 76.94 85.09 70.08 65.89"/><polygon class="cls-1" points="80.35 14.98 104.79 14.98 101.95 20.25 78.07 20.25 80.35 14.98"/><polyline class="cls-4" points="93.35 61.16 98.21 61.16 91.16 45.32 88.68 51.01"/><line class="cls-6" x1="82.25" y1="20.25" x2="80.73" y2="24.16"/><line class="cls-7" x1="97.45" y1="85.09" x2="85.57" y2="61.16"/><line class="cls-8" x1="93.35" y1="61.16" x2="85.24" y2="61.16"/><line class="cls-9" x1="87.53" y1="65.11" x2="95.16" y2="65.11"/><line class="cls-9" x1="89.29" y1="69.1" x2="97" y2="69.1"/><line class="cls-9" x1="91.34" y1="73.12" x2="98.81" y2="73.12"/><line class="cls-9" x1="93.44" y1="77.24" x2="100.74" y2="77.24"/><polyline class="cls-6" points="88.68 51.01 104.35 85.09 91.99 85.09"/><polygon class="cls-4" points="117.83 15.26 100.74 50.17 116.9 85.09 157.36 85.08 172.51 50.17 157.36 15.26 117.83 15.26"/><polygon class="cls-3" points="127.49 27.29 114.88 50.17 127.49 74.22 136.63 74.22 136.63 27.29 127.49 27.29"/><polygon class="cls-10" points="147.39 84.88 141.43 84.88 141.43 15.56 147.25 15.56 147.39 84.88"/><line class="cls-6" x1="141.48" y1="15.26" x2="141.48" y2="85.09"/><polygon class="cls-2" points="147.31 85.08 147.31 15.26 157.22 15.26 172.38 50.16 157.23 85.08 147.31 85.08"/><polygon class="cls-1" points="115.86 19.3 129.24 19.3 129.24 23.36 113.87 23.36 115.86 19.3"/><polygon class="cls-5" points="157.36 83.88 157.36 49.59 165.85 49.58 166.07 64.43 157.36 83.88"/><line class="cls-5" x1="141.48" y1="27.29" x2="147.44" y2="27.29"/><line class="cls-5" x1="141.52" y1="30.59" x2="147.44" y2="30.59"/><line class="cls-5" x1="141.5" y1="34.12" x2="147.46" y2="34.12"/><line class="cls-5" x1="141.48" y1="37.6" x2="147.44" y2="37.6"/><line class="cls-5" x1="141.45" y1="41.34" x2="147.37" y2="41.34"/><line class="cls-5" x1="141.52" y1="76.01" x2="147.44" y2="76.01"/><line class="cls-5" x1="141.48" y1="73.17" x2="147.44" y2="73.17"/><polygon class="cls-5" points="127.49 27.29 132.31 27.29 119.15 50.17 131.43 74.22 127.49 74.22 114.88 50.17 127.49 27.29"/><polygon class="cls-5" points="307.42 14.73 331.85 14.73 331.85 39.17 347.26 39.17 347.26 60.97 331.63 61.19 331.63 85.32 307.42 85.32 307.42 14.73"/><polygon class="cls-4" points="349.86 14.98 349.86 44.9 378.27 44.9 378.27 14.73 349.86 14.98"/><rect class="cls-2" x="349.86" y="55.68" width="28.42" height="29.64"/><line class="cls-2" x1="356.95" y1="44.9" x2="356.95" y2="55.68"/><line class="cls-2" x1="362.23" y1="44.9" x2="362.23" y2="55.68"/><line class="cls-2" x1="366.85" y1="44.63" x2="366.85" y2="55.42"/><line class="cls-2" x1="371.04" y1="44.9" x2="371.04" y2="55.68"/><line class="cls-2" x1="343.96" y1="41.15" x2="349.86" y2="41.15"/><line class="cls-2" x1="343.96" y1="43.08" x2="349.86" y2="43.08"/><line class="cls-2" x1="343.96" y1="57.66" x2="349.86" y2="57.66"/><line class="cls-2" x1="343.96" y1="59.86" x2="349.86" y2="59.86"/><rect class="cls-1" x="331.85" y="19.03" width="3.74" height="20.14"/><polygon class="cls-4" points="248.01 14.67 230.85 49.72 247.08 84.78 287.7 84.77 302.92 49.72 287.7 14.67 248.01 14.67"/><polygon class="cls-3" points="257.71 26.74 245.04 49.72 257.71 73.87 266.88 73.87 266.88 26.74 257.71 26.74"/><rect class="cls-10" x="271.76" y="14.87" width="5.98" height="69.68"/><line class="cls-6" x1="271.76" y1="14.66" x2="271.76" y2="84.78"/><polygon class="cls-2" points="277.74 84.78 277.74 14.67 287.7 14.67 302.92 49.72 287.7 84.77 277.74 84.78"/><polygon class="cls-1" points="245.96 18.73 259.47 18.73 259.47 22.8 244.04 22.8 245.96 18.73"/><polygon class="cls-5" points="287.7 84.16 287.7 49.72 296.23 49.72 296.44 64.63 287.7 84.16"/><line class="cls-5" x1="271.76" y1="26.74" x2="277.74" y2="26.74"/><line class="cls-5" x1="271.79" y1="30.06" x2="277.74" y2="30.06"/><line class="cls-5" x1="271.76" y1="33.8" x2="277.74" y2="33.8"/><line class="cls-5" x1="271.76" y1="37.68" x2="277.74" y2="37.68"/><line class="cls-5" x1="271.79" y1="41.33" x2="277.74" y2="41.33"/><line class="cls-5" x1="271.79" y1="75.66" x2="277.74" y2="75.66"/><line class="cls-5" x1="271.76" y1="72.81" x2="277.74" y2="72.81"/><polygon class="cls-5" points="257.71 26.74 262.54 26.74 249.33 49.72 261.67 73.87 257.71 73.87 245.04 49.72 257.71 26.74"/><line class="cls-6" x1="83.77" y1="20.02" x2="82.25" y2="23.93"/><line class="cls-6" x1="85.29" y1="20.25" x2="83.77" y2="24.16"/><line class="cls-6" x1="86.76" y1="20.25" x2="85.24" y2="24.16"/><line class="cls-6" x1="94.36" y1="20.25" x2="92.84" y2="24.16"/><line class="cls-6" x1="95.88" y1="20.25" x2="94.36" y2="24.16"/><line class="cls-6" x1="97.4" y1="20.25" x2="95.88" y2="24.16"/><line class="cls-6" x1="98.92" y1="20.25" x2="97.4" y2="24.16"/><line class="cls-9" x1="95.27" y1="81.36" x2="102.57" y2="81.36"/><polyline class="cls-3" points="172.55 68.01 185.49 68.01 182.3 77.07 168.55 77.05"/><polygon class="cls-1" points="239.62 84.88 208.84 14.29 194.32 14.29 165.07 84.88 184.63 84.88 196.74 49.34 209.72 49.34 223.38 84.88 239.62 84.88"/><polygon class="cls-2" points="187.47 76.55 192.78 76.55 201.58 49.34 196.74 49.34 187.47 76.55"/><polygon class="cls-10" points="172.25 68.28 185.1 68.01 181.89 76.49 168.86 76.43 172.25 68.28"/><line class="cls-3" x1="175.32" y1="68.01" x2="171.79" y2="76.3"/><line class="cls-3" x1="178.54" y1="68.01" x2="175.42" y2="76.49"/><line class="cls-3" x1="182.01" y1="68.01" x2="178.65" y2="76.48"/><polygon class="cls-3" points="208.51 49.04 205.57 49.04 205.55 14.44 208.54 14.44 208.51 49.04"/><line class="cls-3" x1="205.55" y1="14.29" x2="205.55" y2="49.34"/><line class="cls-2" x1="205.55" y1="22.11" x2="208.22" y2="22.11"/><line class="cls-2" x1="205.55" y1="28.42" x2="208.81" y2="28.42"/><line class="cls-2" x1="205.55" y1="35.5" x2="208.54" y2="35.5"/><polyline class="cls-6" points="172.06 68.01 184.79 68.01 181.58 76.49 168.55 76.43"/></svg>